<svg width="59" height="54" viewBox="0 0 59 54" fill="none" xmlns="http://www.w3.org/2000/svg">
<mask id="path-1-outside-1_6615_29" maskUnits="userSpaceOnUse" x="-0.599609" y="-0.600006" width="60" height="55" fill="black">
<rect fill="white" x="-0.599609" y="-0.600006" width="60" height="55"/>
<path d="M55.5004 0.399994H11.0337C9.4321 0.399994 8.13372 1.6943 8.13372 3.2909V16.8541C4.12399 17.1432 0.400391 18.3535 0.400391 20.6364V49.5454C0.400391 52.1935 5.41159 53.4 10.0671 53.4C13.4871 53.4 17.0909 52.7457 18.7671 51.3513C20.4433 52.7457 24.047 53.4 27.4671 53.4C32.1225 53.4 37.1337 52.1935 37.1337 49.5454V34.1273H55.5004C57.102 34.1273 58.4004 32.833 58.4004 31.2364V3.2909C58.4004 1.6943 57.102 0.399994 55.5004 0.399994ZM10.0671 3.2909C10.0671 2.7587 10.4998 2.32727 11.0337 2.32727H55.5004C56.0343 2.32727 56.4671 2.7587 56.4671 3.2909V21.6H19.7337V20.6364C19.7337 17.9883 14.7225 16.7818 10.0671 16.7818V3.2909ZM56.4671 27.3818H34.1226C31.9704 26.7062 29.7231 26.3808 27.4671 26.4182C24.8165 26.3304 22.1783 26.8156 19.7337 27.8405V23.5273H56.4671V27.3818ZM35.2004 44.7273C35.2004 45.2226 32.5411 46.6545 27.4671 46.6545C22.393 46.6545 19.7337 45.2226 19.7337 44.7273V42.3413C22.1783 43.3662 24.8165 43.8514 27.4671 43.7636C30.1176 43.8514 32.7558 43.3662 35.2004 42.3413V44.7273ZM35.2004 30.2727C35.2004 30.768 32.5411 32.2 27.4671 32.2C22.393 32.2 19.7337 30.768 19.7337 30.2727C19.7337 29.7774 22.393 28.3454 27.4671 28.3454C32.5411 28.3454 35.2004 29.7774 35.2004 30.2727ZM35.2004 35.0909C35.2004 35.5862 32.5411 37.0182 27.4671 37.0182C22.393 37.0182 19.7337 35.5862 19.7337 35.0909V32.7049C22.1783 33.7298 24.8165 34.215 27.4671 34.1273C30.1176 34.215 32.7558 33.7298 35.2004 32.7049V35.0909ZM17.8004 25.4545C17.8004 25.9498 15.1411 27.3818 10.0671 27.3818C4.99302 27.3818 2.33372 25.9498 2.33372 25.4545V23.0686C4.77833 24.0935 7.41652 24.5787 10.0671 24.4909C12.7176 24.5787 15.3558 24.0935 17.8004 23.0686V25.4545ZM10.0671 29.3091C12.7176 29.3969 15.3558 28.9116 17.8004 27.8868V30.2727C17.8004 30.768 15.1411 32.2 10.0671 32.2C4.99302 32.2 2.33372 30.768 2.33372 30.2727V27.8868C4.77833 28.9116 7.41652 29.3969 10.0671 29.3091ZM10.0671 34.1273C12.7176 34.215 15.3558 33.7298 17.8004 32.7049V35.0909C17.8004 35.5862 15.1411 37.0182 10.0671 37.0182C4.99302 37.0182 2.33372 35.5862 2.33372 35.0909V32.7049C4.77833 33.7298 7.41652 34.215 10.0671 34.1273ZM10.0671 38.9454C12.7176 39.0332 15.3558 38.548 17.8004 37.5231V39.9091C17.8004 40.4044 15.1411 41.8364 10.0671 41.8364C4.99302 41.8364 2.33372 40.4044 2.33372 39.9091V37.5231C4.77833 38.548 7.41652 39.0332 10.0671 38.9454ZM2.33372 42.3413C4.77833 43.3662 7.41652 43.8514 10.0671 43.7636C12.7176 43.8514 15.3558 43.3662 17.8004 42.3413V44.7273C17.8004 45.2226 15.1411 46.6545 10.0671 46.6545C4.99302 46.6545 2.33372 45.2226 2.33372 44.7273V42.3413ZM35.2004 39.9091C35.2004 40.4044 32.5411 41.8364 27.4671 41.8364C22.393 41.8364 19.7337 40.4044 19.7337 39.9091V37.5231C22.1783 38.548 24.8165 39.0332 27.4671 38.9454C30.1176 39.0332 32.7558 38.548 35.2004 37.5231V39.9091ZM10.0671 18.7091C15.1411 18.7091 17.8004 20.141 17.8004 20.6364C17.8004 21.1317 15.1411 22.5636 10.0671 22.5636C4.99302 22.5636 2.33372 21.1317 2.33372 20.6364C2.33372 20.141 4.99302 18.7091 10.0671 18.7091ZM10.0671 51.4727C4.99302 51.4727 2.33372 50.0408 2.33372 49.5454V47.1595C4.77833 48.1844 7.41652 48.6696 10.0671 48.5818C12.7176 48.6696 15.3558 48.1844 17.8004 47.1595V49.5454C17.8004 50.0408 15.1411 51.4727 10.0671 51.4727ZM27.4671 51.4727C22.393 51.4727 19.7337 50.0408 19.7337 49.5454V47.1595C22.1783 48.1844 24.8165 48.6696 27.4671 48.5818C30.1176 48.6696 32.7558 48.1844 35.2004 47.1595V49.5454C35.2004 50.0408 32.5411 51.4727 27.4671 51.4727ZM55.5004 32.2H37.1337V30.2727C37.1324 29.9358 37.0466 29.6046 36.8843 29.3091H56.4671V31.2364C56.4671 31.7686 56.0343 32.2 55.5004 32.2Z"/>
</mask>
<path d="M55.5004 0.399994H11.0337C9.4321 0.399994 8.13372 1.6943 8.13372 3.2909V16.8541C4.12399 17.1432 0.400391 18.3535 0.400391 20.6364V49.5454C0.400391 52.1935 5.41159 53.4 10.0671 53.4C13.4871 53.4 17.0909 52.7457 18.7671 51.3513C20.4433 52.7457 24.047 53.4 27.4671 53.4C32.1225 53.4 37.1337 52.1935 37.1337 49.5454V34.1273H55.5004C57.102 34.1273 58.4004 32.833 58.4004 31.2364V3.2909C58.4004 1.6943 57.102 0.399994 55.5004 0.399994ZM10.0671 3.2909C10.0671 2.7587 10.4998 2.32727 11.0337 2.32727H55.5004C56.0343 2.32727 56.4671 2.7587 56.4671 3.2909V21.6H19.7337V20.6364C19.7337 17.9883 14.7225 16.7818 10.0671 16.7818V3.2909ZM56.4671 27.3818H34.1226C31.9704 26.7062 29.7231 26.3808 27.4671 26.4182C24.8165 26.3304 22.1783 26.8156 19.7337 27.8405V23.5273H56.4671V27.3818ZM35.2004 44.7273C35.2004 45.2226 32.5411 46.6545 27.4671 46.6545C22.393 46.6545 19.7337 45.2226 19.7337 44.7273V42.3413C22.1783 43.3662 24.8165 43.8514 27.4671 43.7636C30.1176 43.8514 32.7558 43.3662 35.2004 42.3413V44.7273ZM35.2004 30.2727C35.2004 30.768 32.5411 32.2 27.4671 32.2C22.393 32.2 19.7337 30.768 19.7337 30.2727C19.7337 29.7774 22.393 28.3454 27.4671 28.3454C32.5411 28.3454 35.2004 29.7774 35.2004 30.2727ZM35.2004 35.0909C35.2004 35.5862 32.5411 37.0182 27.4671 37.0182C22.393 37.0182 19.7337 35.5862 19.7337 35.0909V32.7049C22.1783 33.7298 24.8165 34.215 27.4671 34.1273C30.1176 34.215 32.7558 33.7298 35.2004 32.7049V35.0909ZM17.8004 25.4545C17.8004 25.9498 15.1411 27.3818 10.0671 27.3818C4.99302 27.3818 2.33372 25.9498 2.33372 25.4545V23.0686C4.77833 24.0935 7.41652 24.5787 10.0671 24.4909C12.7176 24.5787 15.3558 24.0935 17.8004 23.0686V25.4545ZM10.0671 29.3091C12.7176 29.3969 15.3558 28.9116 17.8004 27.8868V30.2727C17.8004 30.768 15.1411 32.2 10.0671 32.2C4.99302 32.2 2.33372 30.768 2.33372 30.2727V27.8868C4.77833 28.9116 7.41652 29.3969 10.0671 29.3091ZM10.0671 34.1273C12.7176 34.215 15.3558 33.7298 17.8004 32.7049V35.0909C17.8004 35.5862 15.1411 37.0182 10.0671 37.0182C4.99302 37.0182 2.33372 35.5862 2.33372 35.0909V32.7049C4.77833 33.7298 7.41652 34.215 10.0671 34.1273ZM10.0671 38.9454C12.7176 39.0332 15.3558 38.548 17.8004 37.5231V39.9091C17.8004 40.4044 15.1411 41.8364 10.0671 41.8364C4.99302 41.8364 2.33372 40.4044 2.33372 39.9091V37.5231C4.77833 38.548 7.41652 39.0332 10.0671 38.9454ZM2.33372 42.3413C4.77833 43.3662 7.41652 43.8514 10.0671 43.7636C12.7176 43.8514 15.3558 43.3662 17.8004 42.3413V44.7273C17.8004 45.2226 15.1411 46.6545 10.0671 46.6545C4.99302 46.6545 2.33372 45.2226 2.33372 44.7273V42.3413ZM35.2004 39.9091C35.2004 40.4044 32.5411 41.8364 27.4671 41.8364C22.393 41.8364 19.7337 40.4044 19.7337 39.9091V37.5231C22.1783 38.548 24.8165 39.0332 27.4671 38.9454C30.1176 39.0332 32.7558 38.548 35.2004 37.5231V39.9091ZM10.0671 18.7091C15.1411 18.7091 17.8004 20.141 17.8004 20.6364C17.8004 21.1317 15.1411 22.5636 10.0671 22.5636C4.99302 22.5636 2.33372 21.1317 2.33372 20.6364C2.33372 20.141 4.99302 18.7091 10.0671 18.7091ZM10.0671 51.4727C4.99302 51.4727 2.33372 50.0408 2.33372 49.5454V47.1595C4.77833 48.1844 7.41652 48.6696 10.0671 48.5818C12.7176 48.6696 15.3558 48.1844 17.8004 47.1595V49.5454C17.8004 50.0408 15.1411 51.4727 10.0671 51.4727ZM27.4671 51.4727C22.393 51.4727 19.7337 50.0408 19.7337 49.5454V47.1595C22.1783 48.1844 24.8165 48.6696 27.4671 48.5818C30.1176 48.6696 32.7558 48.1844 35.2004 47.1595V49.5454C35.2004 50.0408 32.5411 51.4727 27.4671 51.4727ZM55.5004 32.2H37.1337V30.2727C37.1324 29.9358 37.0466 29.6046 36.8843 29.3091H56.4671V31.2364C56.4671 31.7686 56.0343 32.2 55.5004 32.2Z" fill="#F50E30"/>
<path d="M55.5004 0.399994H11.0337C9.4321 0.399994 8.13372 1.6943 8.13372 3.2909V16.8541C4.12399 17.1432 0.400391 18.3535 0.400391 20.6364V49.5454C0.400391 52.1935 5.41159 53.4 10.0671 53.4C13.4871 53.4 17.0909 52.7457 18.7671 51.3513C20.4433 52.7457 24.047 53.4 27.4671 53.4C32.1225 53.4 37.1337 52.1935 37.1337 49.5454V34.1273H55.5004C57.102 34.1273 58.4004 32.833 58.4004 31.2364V3.2909C58.4004 1.6943 57.102 0.399994 55.5004 0.399994ZM10.0671 3.2909C10.0671 2.7587 10.4998 2.32727 11.0337 2.32727H55.5004C56.0343 2.32727 56.4671 2.7587 56.4671 3.2909V21.6H19.7337V20.6364C19.7337 17.9883 14.7225 16.7818 10.0671 16.7818V3.2909ZM56.4671 27.3818H34.1226C31.9704 26.7062 29.7231 26.3808 27.4671 26.4182C24.8165 26.3304 22.1783 26.8156 19.7337 27.8405V23.5273H56.4671V27.3818ZM35.2004 44.7273C35.2004 45.2226 32.5411 46.6545 27.4671 46.6545C22.393 46.6545 19.7337 45.2226 19.7337 44.7273V42.3413C22.1783 43.3662 24.8165 43.8514 27.4671 43.7636C30.1176 43.8514 32.7558 43.3662 35.2004 42.3413V44.7273ZM35.2004 30.2727C35.2004 30.768 32.5411 32.2 27.4671 32.2C22.393 32.2 19.7337 30.768 19.7337 30.2727C19.7337 29.7774 22.393 28.3454 27.4671 28.3454C32.5411 28.3454 35.2004 29.7774 35.2004 30.2727ZM35.2004 35.0909C35.2004 35.5862 32.5411 37.0182 27.4671 37.0182C22.393 37.0182 19.7337 35.5862 19.7337 35.0909V32.7049C22.1783 33.7298 24.8165 34.215 27.4671 34.1273C30.1176 34.215 32.7558 33.7298 35.2004 32.7049V35.0909ZM17.8004 25.4545C17.8004 25.9498 15.1411 27.3818 10.0671 27.3818C4.99302 27.3818 2.33372 25.9498 2.33372 25.4545V23.0686C4.77833 24.0935 7.41652 24.5787 10.0671 24.4909C12.7176 24.5787 15.3558 24.0935 17.8004 23.0686V25.4545ZM10.0671 29.3091C12.7176 29.3969 15.3558 28.9116 17.8004 27.8868V30.2727C17.8004 30.768 15.1411 32.2 10.0671 32.2C4.99302 32.2 2.33372 30.768 2.33372 30.2727V27.8868C4.77833 28.9116 7.41652 29.3969 10.0671 29.3091ZM10.0671 34.1273C12.7176 34.215 15.3558 33.7298 17.8004 32.7049V35.0909C17.8004 35.5862 15.1411 37.0182 10.0671 37.0182C4.99302 37.0182 2.33372 35.5862 2.33372 35.0909V32.7049C4.77833 33.7298 7.41652 34.215 10.0671 34.1273ZM10.0671 38.9454C12.7176 39.0332 15.3558 38.548 17.8004 37.5231V39.9091C17.8004 40.4044 15.1411 41.8364 10.0671 41.8364C4.99302 41.8364 2.33372 40.4044 2.33372 39.9091V37.5231C4.77833 38.548 7.41652 39.0332 10.0671 38.9454ZM2.33372 42.3413C4.77833 43.3662 7.41652 43.8514 10.0671 43.7636C12.7176 43.8514 15.3558 43.3662 17.8004 42.3413V44.7273C17.8004 45.2226 15.1411 46.6545 10.0671 46.6545C4.99302 46.6545 2.33372 45.2226 2.33372 44.7273V42.3413ZM35.2004 39.9091C35.2004 40.4044 32.5411 41.8364 27.4671 41.8364C22.393 41.8364 19.7337 40.4044 19.7337 39.9091V37.5231C22.1783 38.548 24.8165 39.0332 27.4671 38.9454C30.1176 39.0332 32.7558 38.548 35.2004 37.5231V39.9091ZM10.0671 18.7091C15.1411 18.7091 17.8004 20.141 17.8004 20.6364C17.8004 21.1317 15.1411 22.5636 10.0671 22.5636C4.99302 22.5636 2.33372 21.1317 2.33372 20.6364C2.33372 20.141 4.99302 18.7091 10.0671 18.7091ZM10.0671 51.4727C4.99302 51.4727 2.33372 50.0408 2.33372 49.5454V47.1595C4.77833 48.1844 7.41652 48.6696 10.0671 48.5818C12.7176 48.6696 15.3558 48.1844 17.8004 47.1595V49.5454C17.8004 50.0408 15.1411 51.4727 10.0671 51.4727ZM27.4671 51.4727C22.393 51.4727 19.7337 50.0408 19.7337 49.5454V47.1595C22.1783 48.1844 24.8165 48.6696 27.4671 48.5818C30.1176 48.6696 32.7558 48.1844 35.2004 47.1595V49.5454C35.2004 50.0408 32.5411 51.4727 27.4671 51.4727ZM55.5004 32.2H37.1337V30.2727C37.1324 29.9358 37.0466 29.6046 36.8843 29.3091H56.4671V31.2364C56.4671 31.7686 56.0343 32.2 55.5004 32.2Z" stroke="#F50E30" stroke-width="0.8" mask="url(#path-1-outside-1_6615_29)"/>
<path d="M49.4004 4.6998C52.2722 4.69991 54.6006 7.02818 54.6006 9.89999C54.6006 12.7718 52.2722 15.1001 49.4004 15.1002H49.3994C48.3253 15.0966 47.2813 14.756 46.4111 14.1305C45.5331 14.7573 44.4817 15.0982 43.4004 15.1002C41.1334 15.1043 39.125 13.639 38.4365 11.4791C37.7481 9.31918 38.5385 6.9624 40.3896 5.6539C42.1999 4.37442 44.616 4.38667 46.4111 5.66855C47.2812 5.04319 48.3255 4.70338 49.3994 4.6998H49.4004ZM49.4004 7.10019C47.854 7.10019 46.6006 8.3536 46.6006 9.89999C46.6006 11.4464 47.854 12.6998 49.4004 12.6998C50.9467 12.6997 52.2002 11.4463 52.2002 9.89999C52.2002 8.35366 50.9467 7.1003 49.4004 7.10019ZM43.1768 7.10898C42.0691 7.19571 41.1089 7.93442 40.749 9.00058C40.3652 10.1378 40.7503 11.3928 41.7061 12.1187C42.6133 12.8079 43.8411 12.8727 44.8125 12.3004C43.9987 10.8025 43.999 8.99525 44.8135 7.49765C44.3871 7.24138 43.8991 7.10303 43.3994 7.10019L43.1768 7.10898Z" fill="#F50E30" stroke="#F50E30" stroke-width="0.4"/>
<path d="M24.4004 16.6002C25.1184 16.6002 25.7002 17.182 25.7002 17.9C25.7002 18.618 25.1184 19.1998 24.4004 19.1998H23.4004C22.6824 19.1998 22.1006 18.618 22.1006 17.9C22.1006 17.182 22.6824 16.6002 23.4004 16.6002H24.4004Z" fill="#F50E30" stroke="#F50E30" stroke-width="0.6"/>
<path d="M29.4004 16.6002C30.1184 16.6002 30.7002 17.182 30.7002 17.9C30.7002 18.618 30.1184 19.1998 29.4004 19.1998H28.4004C27.6824 19.1998 27.1006 18.618 27.1006 17.9C27.1006 17.182 27.6824 16.6002 28.4004 16.6002H29.4004Z" fill="#F50E30" stroke="#F50E30" stroke-width="0.6"/>
<path d="M34.4004 16.6002C35.1184 16.6002 35.7002 17.182 35.7002 17.9C35.7002 18.618 35.1184 19.1998 34.4004 19.1998H33.4004C32.6824 19.1998 32.1006 18.618 32.1006 17.9C32.1006 17.182 32.6824 16.6002 33.4004 16.6002H34.4004Z" fill="#F50E30" stroke="#F50E30" stroke-width="0.6"/>
</svg>
